<svg xmlns="http://www.w3.org/2000/svg" width="340" height="240" viewBox="0 0 340 240"><ellipse cx="180" cy="210" rx="120" ry="12" fill="#ccd9c1"/><path d="M80 114c0-38 42-70 100-70s100 32 100 70" fill="#f5f2e5" stroke="#bbc8b0" stroke-width="2"/><g stroke="#92ab81" stroke-width="2"><path d="M108 116C63 53 122 18 149 62c34-35 63 18 27 57" fill="#9bb98a"/><path d="M129 118l6-59m1 27-27-11m26 28 24-24" fill="none"/></g><g fill="#e5b88b"><circle cx="189" cy="96" r="17"/><circle cx="218" cy="87" r="18"/><circle cx="235" cy="110" r="18"/><circle cx="201" cy="120" r="20"/></g><g fill="#bd7052"><circle cx="167" cy="109" r="16"/><circle cx="153" cy="130" r="17"/></g><g fill="#f9efd4"><ellipse cx="219" cy="120" rx="5" ry="11" transform="rotate(40 219 120)"/><ellipse cx="233" cy="132" rx="5" ry="11" transform="rotate(40 233 132)"/><ellipse cx="207" cy="138" rx="5" ry="11" transform="rotate(40 207 138)"/></g><path d="M75 117h210c-5 63-49 88-105 88s-99-25-105-88" fill="#fdfaf0" stroke="#bbc8b0" stroke-width="2"/><path d="M84 135h192" stroke="#e0e3cf" stroke-width="3"/><path d="M106 151c9 24 27 34 47 38" stroke="#e6e9db" stroke-width="7" fill="none" stroke-linecap="round"/><path d="M42 58c-15-12-9-32 9-38 4 18 9 25-9 38M293 64c-1-22 13-29 30-24-5 17-12 27-30 24" fill="#8eaa7c"/><circle cx="65" cy="171" r="5" fill="#d7ae77"/><circle cx="306" cy="158" r="4" fill="#d7ae77"/></svg>
